<svg xmlns="http://www.w3.org/2000/svg" viewBox="0 0 100 100">
<rect width="100" height="100" rx="22" fill="#4F6B52"/>
<g stroke="#F6F9F6" stroke-linejoin="round" fill="none" stroke-opacity="0.8">
<polygon points="50.00,14.00 81.18,32.00 81.18,68.00 50.00,86.00 18.82,68.00 18.82,32.00" stroke-width="3.5"/>
<polygon points="50.00,26.60 70.26,38.30 70.26,61.70 50.00,73.40 29.74,61.70 29.74,38.30" stroke-width="2"/>
<polygon points="50.00,38.48 59.98,44.24 59.98,55.76 50.00,61.52 40.02,55.76 40.02,44.24" stroke-width="2"/>
<line x1="50" y1="50" x2="50.00" y2="14.00" stroke-width="1.5"/>
<line x1="50" y1="50" x2="81.18" y2="32.00" stroke-width="1.5"/>
<line x1="50" y1="50" x2="81.18" y2="68.00" stroke-width="1.5"/>
<line x1="50" y1="50" x2="50.00" y2="86.00" stroke-width="1.5"/>
<line x1="50" y1="50" x2="18.82" y2="68.00" stroke-width="1.5"/>
<line x1="50" y1="50" x2="18.82" y2="32.00" stroke-width="1.5"/>
</g>
<polygon points="50.00,17.60 68.71,39.20 74.94,64.40 50.00,68.00 21.94,66.20 28.18,37.40" fill="#F6F9F6" fill-opacity="0.4" stroke="#F6F9F6" stroke-width="4" stroke-linejoin="round"/>
<circle cx="50.00" cy="17.60" r="4" fill="#F6F9F6"/>
<circle cx="68.71" cy="39.20" r="4" fill="#F6F9F6"/>
<circle cx="74.94" cy="64.40" r="4" fill="#F6F9F6"/>
<circle cx="50.00" cy="68.00" r="4" fill="#F6F9F6"/>
<circle cx="21.94" cy="66.20" r="4" fill="#F6F9F6"/>
<circle cx="28.18" cy="37.40" r="4" fill="#F6F9F6"/>
</svg>
